<?xml version="1.0" encoding="UTF-8" standalone="no"?>
<svg xmlns="http://www.w3.org/2000/svg" viewBox="0 0 60 36">
  <rect width="60" height="36" fill="#ed2939"/>
  <rect width="60" height="18" fill="#fff"/>
  <circle cx="18" cy="18" r="8" fill="#fff"/>
  <path id="crescent" fill="#ed2939" d="M 14,18 a 8,8 0 0 1 8,-8 a 7,7 0 0 0 -8,8 a 7,7 0 0 0 8,8 a 8,8 0 0 1 -8,-8 z"/>
  <!-- 5 stars -->
  <g fill="#fff" transform="translate(18,18)">
    <polygon id="star" points="0,-3 0.584,-0.907 2.964,-0.809 1.1,0.321 1.7,2.508 0,1.3 -1.7,2.508 -1.1,0.321 -2.964,-0.809 -0.584,-0.907" />
    <use id="star1" href="#star" transform="rotate(72) translate(0,-14)"/>
    <use id="star2" href="#star" transform="rotate(144) translate(0,-14)"/>
    <use id="star3" href="#star" transform="rotate(216) translate(0,-14)"/>
    <use id="star4" href="#star" transform="rotate(288) translate(0,-14)"/>
    <use id="star5" href="#star" transform="rotate(360) translate(0,-14)"/>
  </g>
</svg>