<svg xmlns="http://www.w3.org/2000/svg" width="100" height="80" viewBox="0 0 100 80">
  <!-- Docker logo stylized with MCP elements -->
  <g transform="translate(5, 5)">
    <!-- Docker whale body -->
    <path fill="#0db7ed" d="M40.7,27.3c0.6-0.5,1.2-1,1.2-1.7c0-1-0.8-1.9-0.8-1.9s-0.5,0.7-0.5,1.4c0,0.6,0.3,1.1,0.1,1.5
      c-0.3,0.6-1.5,1.4-1.8,3.6c-0.2,1.8,1.6,4.5,4.1,4.3c0.2,2.5,2,4.3,4.9,4.3c3,0,4.8-1.9,4.9-4.3c2.5,0.2,4.3-2.5,4.1-4.3
      c-0.3-2.2-1.5-3-1.8-3.6c-0.2-0.3,0.1-0.9,0.1-1.5c0-0.7-0.5-1.4-0.5-1.4s-0.7,0.9-0.8,1.9c0,0.7,0.6,1.2,1.2,1.7
      c-0.4,0.5-1.2,1.3-1.1,2.5c0.1,0.9,0.7,1.8,1.5,2.2c-0.4,1.5-1.5,2.4-3.3,2.4c-0.2-0.7-0.7-1.3-1.5-1.3c-0.8,0-1.4,0.6-1.4,1.4
      c0,0.8,0.6,1.4,1.4,1.4c0.1,0,0.2,0,0.3,0c0.3,1.8-0.7,3.6-3.3,3.6c-2.6,0-3.6-1.8-3.3-3.6c0.1,0,0.2,0,0.3,0
      c0.8,0,1.4-0.6,1.4-1.4c0-0.8-0.6-1.4-1.4-1.4c-0.8,0-1.3,0.6-1.5,1.3c-1.8,0-2.9-1-3.3-2.4c0.8-0.4,1.4-1.3,1.5-2.2
      C41.9,28.6,41.1,27.9,40.7,27.3z" />
    <!-- Docker container boxes -->
    <rect x="28" y="34" width="8" height="8" rx="1" fill="#0db7ed" />
    <rect x="18" y="34" width="8" height="8" rx="1" fill="#0db7ed" />
    <rect x="8" y="34" width="8" height="8" rx="1" fill="#0db7ed" />
    <rect x="28" y="24" width="8" height="8" rx="1" fill="#0db7ed" />
    <rect x="18" y="24" width="8" height="8" rx="1" fill="#0db7ed" />
    <rect x="18" y="14" width="8" height="8" rx="1" fill="#0db7ed" />
    <!-- MCP Text and circular connection -->
    <circle cx="60" cy="28" r="18" fill="none" stroke="#384d54" stroke-width="2.5" />
    <path fill="#384d54" d="M51,26 L53,26 L53,30 L56,26 L59,26 L55,31 L59,36 L56,36 L53,32.5 L53,36 L51,36 Z" />
    <path fill="#384d54" d="M58,26 L63,26 C64.1,26 65,26.4 65.6,27.1 C66.2,27.8 66.5,28.7 66.5,29.8 C66.5,30.9 66.2,31.8 65.6,32.5 C65,33.2 64.1,33.5 63,33.5 L60,33.5 L60,36 L58,36 L58,26 Z M60,28 L60,31.5 L62.5,31.5 C63,31.5 63.4,31.3 63.7,31 C64,30.7 64.1,30.3 64.1,29.8 C64.1,29.3 64,28.9 63.7,28.6 C63.4,28.2 63,28 62.5,28 L60,28 Z" />
    <path fill="#384d54" d="M67,26 L75,26 L75,28 L69,28 L69,30 L74,30 L74,32 L69,32 L69,34 L75,34 L75,36 L67,36 Z" />
    <!-- Connection lines between docker and MCP -->
    <path fill="none" stroke="#384d54" stroke-width="1.5" d="M46,28 C50,28 50,28 55,28" />
    <circle cx="55" cy="28" r="2" fill="#0db7ed" />
  </g>
</svg>